<?xml version="1.0" standalone="no"?>
<!DOCTYPE svg PUBLIC "-//W3C//DTD SVG 20010904//EN"
 "http://www.w3.org/TR/2001/REC-SVG-20010904/DTD/svg10.dtd">
<svg version="1.0" xmlns="http://www.w3.org/2000/svg"
 width="2312.000000pt" height="636.000000pt" viewBox="0 0 2312.000000 636.000000"
 preserveAspectRatio="xMidYMid meet">

<g transform="translate(0.000000,636.000000) scale(0.100000,-0.100000)"
fill="#000000" stroke="none">
<path d="M4020 5535 c-19 -7 -75 -25 -125 -40 -175 -51 -374 -165 -498 -284
-102 -98 -251 -325 -273 -416 -4 -17 -17 -48 -29 -70 -12 -22 -30 -66 -40 -97
-12 -37 -23 -54 -29 -48 -15 15 -27 308 -23 569 2 135 0 260 -5 278 -6 23 -18
37 -36 44 -18 7 -376 10 -1100 7 -1060 -3 -1074 -3 -1088 -23 -13 -17 -15 -81
-12 -425 3 -391 4 -408 27 -485 35 -119 41 -133 95 -215 67 -101 85 -122 159
-185 107 -92 299 -168 466 -186 47 -5 285 -9 529 -9 288 0 442 -3 442 -10 0
-5 -9 -10 -20 -10 -53 0 -410 -161 -446 -202 -10 -10 -23 -18 -30 -18 -16 0
-190 -165 -220 -210 -13 -19 -43 -62 -68 -96 -24 -33 -47 -71 -51 -85 -4 -13
-18 -36 -31 -51 -23 -28 -71 -171 -97 -293 -35 -157 -38 -259 -35 -1098 l3
-829 32 -28 32 -28 683 4 c376 3 693 7 705 10 13 2 31 16 40 31 16 24 19 71
25 463 8 425 16 568 32 525 34 -90 50 -126 130 -297 81 -171 250 -370 391
-460 109 -69 233 -129 310 -150 177 -47 170 -46 1135 -48 503 -2 922 1 931 4
9 4 21 17 26 29 7 14 11 246 12 637 0 338 4 652 7 697 6 73 4 85 -16 117 l-22
36 -438 0 c-241 0 -449 4 -462 9 -26 10 -97 148 -388 756 -34 72 -86 180 -115
240 -132 275 -165 348 -171 380 -5 31 -3 36 21 45 17 6 297 10 790 10 l764 0
15 22 c14 20 16 106 16 736 l0 713 -25 24 -24 25 -933 -1 c-759 0 -940 -3
-968 -14z m-970 -1575 c7 -16 28 -51 46 -77 19 -27 34 -52 34 -57 0 -4 36 -82
80 -172 44 -90 80 -168 80 -174 0 -5 15 -35 34 -67 18 -32 48 -91 66 -132 18
-41 53 -115 80 -165 26 -50 53 -108 60 -129 13 -42 26 -68 52 -107 19 -29 93
-212 102 -252 5 -23 2 -29 -16 -33 -13 -3 -162 -4 -332 -3 l-308 3 -15 45
c-14 39 -15 114 -9 595 6 556 13 755 26 755 4 0 13 -13 20 -30z"/>
<path d="M8814 4555 c-12 -29 -14 -212 -14 -1262 0 -675 3 -1238 6 -1251 12
-44 48 -52 244 -52 216 0 245 7 256 67 4 21 2 155 -4 298 -24 531 -13 602 116
734 49 50 69 62 126 80 82 25 112 26 187 5 68 -19 135 -76 171 -144 l23 -45 3
-464 c3 -515 1 -502 71 -521 20 -5 120 -10 222 -10 169 0 189 2 210 19 l24 19
2 479 c3 514 0 565 -46 698 -52 152 -149 244 -332 315 -70 27 -230 60 -293 60
-97 0 -260 -60 -356 -132 -54 -41 -100 -62 -110 -51 -12 13 -32 799 -23 889 5
44 9 121 8 170 0 139 10 134 -258 134 l-218 0 -15 -35z"/>
<path d="M16315 4520 c-101 -23 -165 -46 -222 -79 -24 -14 -54 -31 -66 -38
-49 -28 -170 -149 -216 -218 -151 -226 -158 -509 -19 -720 107 -162 181 -217
499 -374 297 -146 376 -198 413 -272 34 -70 35 -142 2 -207 -45 -89 -139 -132
-302 -140 -99 -4 -119 -2 -205 23 -105 31 -230 92 -373 184 -28 17 -58 31 -67
31 -13 0 -69 -58 -69 -72 0 -2 -43 -75 -95 -163 -52 -87 -95 -167 -95 -177 0
-47 96 -112 301 -203 341 -152 745 -168 1059 -41 58 23 131 59 163 80 89 59
193 176 212 237 4 13 13 31 21 39 7 9 28 74 45 145 38 159 37 254 -5 380 -33
99 -59 139 -155 239 -111 115 -224 184 -479 297 -298 132 -400 202 -433 299
-29 82 35 200 134 246 45 21 67 24 167 24 135 0 230 -22 376 -89 51 -22 101
-41 112 -41 12 0 31 14 45 33 36 49 167 316 167 342 0 34 -40 69 -121 107
-273 128 -577 177 -794 128z"/>
<path d="M6934 4473 c-33 -3 -44 -10 -55 -31 -19 -39 -25 -2315 -6 -2382 19
-67 28 -70 285 -70 187 0 227 3 247 16 l24 16 -2 434 c-2 377 0 436 13 444 8
5 85 10 170 10 85 0 189 5 230 10 421 54 664 237 767 576 13 45 17 95 18 214
0 151 -1 157 -34 250 -18 52 -45 117 -58 145 -60 117 -205 239 -358 300 -81
32 -231 56 -410 65 -172 9 -745 11 -831 3z m870 -459 c106 -38 144 -63 191
-127 50 -66 60 -108 53 -225 -7 -114 -43 -172 -144 -235 -81 -50 -175 -71
-321 -72 -77 0 -136 4 -142 10 -14 14 -33 359 -26 475 12 190 11 188 58 199
72 18 251 4 331 -25z"/>
<path d="M12768 4112 l-77 -3 -9 -52 c-6 -29 -11 -151 -12 -272 0 -121 -4
-223 -8 -227 -4 -4 -43 -8 -86 -10 -73 -3 -80 -5 -100 -31 -19 -26 -21 -42
-21 -160 0 -177 10 -196 104 -197 29 0 95 -17 111 -28 2 -2 7 -159 11 -350 6
-327 8 -352 32 -437 33 -120 58 -173 112 -233 53 -59 160 -115 252 -133 126
-23 360 4 439 52 39 23 46 49 34 115 -14 77 -82 245 -105 260 -12 8 -52 16
-90 20 -88 8 -96 13 -131 71 l-29 48 0 287 c0 259 2 289 17 305 14 14 43 18
148 23 172 7 164 -1 168 186 3 103 0 153 -10 174 l-13 30 -150 2 -150 3 -6 30
c-4 17 -7 134 -8 262 -1 188 -4 234 -15 246 -18 18 -133 30 -247 25 -46 -2
-119 -4 -161 -6z"/>
<path d="M11390 3580 c-123 -17 -284 -71 -397 -134 -12 -7 -60 -41 -107 -76
-85 -63 -172 -164 -214 -246 -31 -63 -63 -182 -72 -271 -11 -104 2 -279 24
-321 9 -17 16 -37 16 -44 0 -7 14 -42 30 -77 94 -199 301 -349 575 -418 53
-13 113 -17 250 -18 205 0 290 14 424 70 78 32 190 90 201 104 3 4 27 24 54
46 66 54 161 181 195 262 49 115 64 209 58 347 -5 117 -13 152 -61 284 -36 96
-131 209 -261 309 -36 27 -202 113 -222 113 -4 1 -26 9 -48 20 -22 11 -52 19
-66 20 -14 0 -48 6 -75 14 -64 19 -221 27 -304 16z m215 -444 c79 -21 128 -51
185 -113 80 -87 94 -127 95 -253 0 -93 -3 -111 -26 -160 -91 -189 -324 -268
-522 -177 -168 77 -255 294 -187 470 23 62 106 160 164 196 74 46 199 62 291
37z"/>
<path d="M14290 3560 c-184 -37 -294 -87 -420 -187 -208 -165 -296 -349 -294
-613 1 -235 85 -424 250 -564 137 -117 261 -173 452 -206 461 -80 887 98 1061
443 74 149 101 334 67 462 -9 32 -16 66 -16 74 0 23 -78 181 -117 235 -66 93
-148 169 -252 233 -194 119 -499 171 -731 123z m307 -427 c76 -19 171 -85 215
-149 56 -81 65 -303 17 -399 -64 -129 -254 -215 -408 -185 -80 15 -177 67
-216 114 -18 23 -46 66 -61 96 -26 50 -29 64 -29 155 1 90 4 106 32 165 82
174 255 252 450 203z"/>
<path d="M20213 3565 c-88 -19 -179 -54 -199 -76 -9 -11 -21 -19 -26 -19 -5 0
-14 -5 -21 -10 -7 -6 -32 -26 -57 -45 -52 -40 -58 -35 -59 45 -1 72 -10 75
-253 72 -113 -2 -219 -7 -235 -11 l-28 -7 -2 -720 c-3 -785 -4 -773 53 -795
14 -5 106 -9 205 -9 190 0 237 9 241 48 1 9 2 204 2 432 l1 415 25 65 c35 93
132 191 215 216 79 25 158 23 220 -5 82 -36 124 -87 161 -191 17 -50 19 -94
24 -485 3 -236 9 -438 14 -448 19 -40 56 -47 245 -47 201 0 225 5 241 56 8 23
10 191 7 541 -4 606 -5 609 -96 727 -31 42 -75 89 -97 107 -87 69 -214 120
-362 143 -117 19 -137 19 -219 1z"/>
<path d="M21805 3560 c-130 -23 -216 -59 -329 -135 -55 -37 -161 -139 -204
-195 -37 -49 -104 -172 -122 -224 -34 -98 -45 -223 -31 -333 7 -54 21 -124 32
-155 58 -173 238 -367 432 -465 147 -74 346 -99 542 -68 138 21 291 69 305 95
14 27 12 81 -5 110 -21 37 -75 149 -75 158 -1 4 -11 19 -23 34 -25 31 -51 35
-112 19 -22 -6 -96 -11 -165 -11 -102 0 -133 4 -168 20 -65 29 -150 116 -183
185 -27 56 -29 69 -29 181 0 115 2 124 31 182 83 167 254 232 500 190 94 -16
112 -6 164 93 22 42 45 83 51 90 19 23 26 59 19 95 -6 37 -30 53 -136 94 -63
24 -277 60 -346 59 -27 -1 -93 -9 -148 -19z"/>
<path d="M17400 3511 c-104 -7 -107 -14 -53 -107 21 -37 55 -99 77 -138 21
-39 51 -91 68 -115 16 -24 43 -71 60 -105 17 -33 46 -84 64 -112 19 -28 34
-54 34 -57 0 -3 34 -65 76 -139 42 -73 87 -155 101 -183 14 -27 31 -57 38 -65
28 -33 135 -249 135 -273 0 -23 -57 -140 -212 -437 -21 -41 -69 -133 -106
-205 -37 -71 -87 -163 -111 -204 -24 -40 -45 -90 -48 -111 -8 -59 2 -61 282
-58 l244 3 30 29 c17 17 31 35 31 42 0 10 71 154 108 219 6 11 25 49 42 85 17
36 44 86 59 111 16 25 32 57 36 70 4 13 13 31 20 39 7 8 16 26 20 39 4 13 22
49 40 80 39 68 118 216 196 371 33 63 64 122 69 130 6 8 14 26 20 40 5 14 14
32 19 40 25 42 109 195 146 265 23 44 53 98 65 120 13 22 30 54 37 70 8 17 18
38 23 47 17 30 84 159 135 257 28 53 63 114 78 137 15 23 30 57 34 77 5 35 5
35 -39 42 -24 4 -148 5 -275 3 -210 -3 -233 -5 -252 -22 -12 -11 -21 -23 -21
-29 0 -5 -13 -37 -29 -71 -16 -33 -45 -99 -66 -146 -20 -47 -59 -132 -87 -190
-28 -58 -58 -125 -68 -150 -23 -58 -67 -135 -85 -150 -9 -8 -19 -8 -33 -1 -18
10 -72 80 -72 95 0 4 -13 26 -28 49 -16 23 -46 78 -66 122 -21 44 -51 98 -66
120 -15 22 -42 72 -60 110 -18 39 -45 89 -60 112 -16 22 -31 49 -34 60 -4 10
-19 33 -34 51 l-28 34 -184 3 c-102 1 -223 0 -270 -4z"/>
</g>
</svg>
